<?xml version="1.0" encoding="UTF-8"?>
<svg id="Livello_1" data-name="Livello 1" xmlns="http://www.w3.org/2000/svg" xmlns:xlink="http://www.w3.org/1999/xlink" viewBox="0 0 610.34 142.12">
  <defs>
    <style>
      .cls-1 {
        fill: none;
      }

      .cls-2 {
        fill: #1d1d1b;
      }

      .cls-3 {
        fill: #f7d300;
      }

      .cls-4 {
        clip-path: url(#clippath);
      }
    </style>
    <clipPath id="clippath">
      <rect class="cls-1" width="610.34" height="142.12"/>
    </clipPath>
  </defs>
  <g class="cls-4">
    <path class="cls-2" d="M23.02,109.01s1.65-.05,4.68,0c.09-.08.16-.29.28-.34,2.23-2.51,1.57-5.43,2.15-7.81.74-.39,1.21-.32,1.66-.17,4.97,1.63,9.65.57,13.89-2.02,4.92-3,9.36-6.57,10.17-12.91.48-3.7-.49-7.14-1.78-10.52-1.24-3.27-3.72-5.23-7.02-6.1-5.09-1.35-9.96-.54-14.61,1.79-.67.33-1.22.93-2.29.67-.28-.22-.76-.53-1.15-.93-1.34-1.36-2.66-1.21-3.99-.02-1.2,1.08-2.41,2.13-3.59,3.23-.79.73-1.45,1.54-.85,2.94,1.32.78,2.59,1.75,2.57,3.8-.06,8.34,0,16.69-.05,25.03-.01,2.28-.08,3.35-.08,3.35M29.88,76.78c.02-1.83,1.01-2.6,2.63-3.19,10.24-3.72,17.62,5.42,17.49,13.91,0,5.51-2.52,8.44-8,9.19-3.27.44-6.42-.23-9.47-1.35-2-.74-3.02-2.11-2.94-4.33.15-4.74.24-9.48.3-14.22"/>
    <path class="cls-2" d="M192.17,105.88c0,.63-.08,1.26-.39,1.82,1.82-.03,3.64-.09,5.46-.15,2.04-2.13,1.78-4.99,1.77-7.81-.03-7.3-.02-14.6,0-21.9,0-1.3-.26-2.68.71-3.79,4.41-1.45,8.89.27,10.43,4.28,1.88,4.91.86,8.33-3.43,11.03-1.03.65-2.24,1.02-3.37,1.49-1.04.43-2.18.74-2.39,2.04.29.97.98,1.47,1.75,1.85,2.46,1.22,4.9,2.5,7.41,3.6,4.26,1.86,8.67,2.75,13.31,1.57,1.65-.42,3.23-.94,3.97-3.35-6.89.79-12.26-2.15-17.31-5.39.09-1.26.61-1.52,1.09-1.83,1.84-1.21,3.5-2.59,4.62-4.54,2.68-4.66,2.18-10.21-1.39-13.27-3.15-2.7-6.61-3.04-10.37-1.9-2.27.69-4.42,1.42-6.91.71-2.11-.6-5.89,1.88-7.06,4.17.11,1.3,1.71,1.48,2.11,3.13,0,9.09,0,18.66-.01,28.24"/>
    <path class="cls-3" d="M285.41,82.92c4.61,3.83,9.92,6.52,15.54,8.65,3.14,1.19,6.39,1.71,9.64,2.37,5.35,1.09,10.77,1.08,16.11.27,6.78-1.02,13.32-2.89,19.07-6.88.88-.61,1.9-.89,2.93-.19.98.67,1.3,1.7,1.07,2.76l-1.44,12.39c-.9,3.42-1.43,5.79-3.03,6.6h9.53c.07,0,4.2-6.99,5.58-9.02,2.1-3.11,3.01-6.53,3.03-10.19.05-8.72.02-17.45,0-26.17,0-1.02.18-2.1-.66-3.1-1.67-.92-3.25-.19-4.66.77-1.64,1.11-3.22,2.47-4.92,3.32-2.82,1.41-3.39,3.57-3.37,6.27.01,2.75.02,5.5,0,8.25-.01,1.59-.43,3.06-1.88,3.92-3.44,2.05-7.05,3.78-11.08,4.18-2.73.27-5.49.16-8.24.14-6.7-.04-12.87-2.25-18.7-5.23-4.61-2.36-8.91-5.25-12.8-8.85-5.15-4.77-9.52-9.8-10.9-16.94-1.31-6.71-1.61-13.33,1.18-19.75,2.76-6.36,7.4-11.14,13.79-13.63,6.82-2.66,14.06-2.9,21.28-1.56,10.13,1.86,19.77,5.1,28.66,10.4,2.19,1.31,4.29,1.74,6.49-.13,2.01-1.71,4.46-2.88,6.32-4.8.76-.78,2.08-1.09,2.18-2.42-.08-.55-.36-.9-.79-1.17-4.03-2.56-8.45-4.47-12.96-5.65-8.57-2.24-17.22-4.26-26.31-3.24-5.1.57-10.12,1.29-15.07,2.56-6.84,1.74-13.13,4.68-19.07,8.56-6.8,4.43-12.33,10-16.53,16.88-1.79,2.93-3.04,6.26-3.32,9.59-.41,4.84-.53,9.69,1.41,14.53,2.64,6.6,6.58,12.09,11.94,16.54"/>
    <path class="cls-2" d="M179.3,70.16c.54,1.03-.12,1.6-.8,2.16-1.41,1.16-3.01,2.06-4.77,2.41-4.82.94-9.58,1.8-14.6.42-3.25-.89-6.11,1.4-8.82,3.12-.71.45-1.31,1.09-1.94,1.66-2.54,2.31-2.95,5.55-1.08,8.47,4.86,7.59,15.3,10.7,23.57,7.01,1.04-.46,2.04-1,3.06-1.5.61-.3,1.21-.57,2.01.23-1,1.55-2.18,3.01-3.83,3.93-8.66,4.82-17.49,5.31-26.23.39-7.82-4.41-8.31-14.48-1.19-19.9,1.29-.98,2.61-1.87,4.06-2.59.8-.4,1.82-.63,2.11-1.96-5.44-1.24-10.78.23-16.02.75-.49-1.49.33-1.99.99-2.44,4.58-3.08,9.65-4.31,15.11-3.65,5.16.63,10.3,1.54,15.47,2.09,3.3.35,6.62.06,9.9-.6.98-.2,2.01-.74,2.99,0"/>
    <path class="cls-2" d="M118.98,71.09c-.83,3.39-2.5,4.54-5.66,3.78-2.48-.6-4.92-1.38-7.39-2.05-2.33-.64-4.73-.58-7.07-.27-3.27.44-5.97,1.95-6.34,7.35.57,1,1.56.97,2.5.97,7.77.02,15.55-.02,23.32.05,1.72.01,3.48-1.01,5.1-.12.4,1.03-.12,1.48-.68,1.86-2.17,1.49-4.56,2.24-7.21,2.23-6.35-.02-12.71-.01-19.06.04-1.39.01-2.85-.26-4.14.52-.71,1.28.02,2.17.66,3.13,3.49,5.22,11.79,10.35,19.56,7.74.68-.23,1.46-.51,2.36.16-.82,1.9-2.37,2.98-4.22,3.74-6.28,2.59-12.06,1.4-17.42-2.43-1.68-1.21-3.33-2.51-4.63-4.18-3.45-4.42-3.89-9.17-1.18-14.05,2.97-5.35,7.6-8.66,13.4-10.26,4.94-1.36,9.97-.88,14.94.09,1.17.23,2.44.53,3.13,1.7"/>
    <path class="cls-2" d="M276.77,97.73c-1.84,2.79-5.36,3.51-8.73,1.83-1.92-.96-3.3-2.55-4.65-4.11-1.36-1.57-2.85-1.79-4.81-1.41-6.16,1.19-12.2,2.64-17.64,5.94-.64.39-1.4.62-2.16.02-.48-1.2.5-1.91,1.04-2.72,2-3,3.75-6.13,5.35-9.35,2.12-4.26,1.87-8.84,1.71-13.38-.06-1.8.48-3.09,1.79-4.22,1.97-1.7,3.3-1.67,4.62.58,2.06,3.52,4.38,6.85,6.64,10.24,2.79,4.19,5.99,8.04,9.57,11.56,1.43,1.41,3.22,2.29,5.04,3.12.92.42,2.05.62,2.24,1.9M252.94,83.45c-1.52,3.66-3.49,6.44-5.14,9.53,3.68-.47,7.17-1.07,10.55-2.96-1.5-2.51-2.7-4.77-5.41-6.57"/>
    <path class="cls-2" d="M504.05,98.84c-6.35-6.99-15.27-9.5-22.77-15.52-.58,4.63-1.52,8.47,1.38,11.83-1.83,3.35-2.86,3.98-5.33,3.32-.78-.86-.59-1.93-.6-2.96-.02-4.64-.02-9.28-.02-13.92,0-1.23.04-2.46-.48-3.63-.42-.94-.29-1.79.28-2.67,2.3-3.55,3.33-3.62,5.8-.11,2.34,3.33,5.38,5.78,8.87,7.79,3.28,1.89,6.49,3.88,9.76,5.77.86.5,1.69,1.28,2.84,1,1.51-2.74,1.05-10.6-.75-13.19-.17-.85.29-1.45.8-2.03.9-1.02,1.93-2.05,3.37-1.67,1.67.44,1.43,2,1.43,3.32-.01,4.83.01,9.66-.07,14.49-.05,3.19-1.36,5.79-4.49,8.19"/>
    <path class="cls-2" d="M531.43,79.55c-1.63-1.35-3.22-1.43-4.6-2.02-2.36-1-3.25-2.23-2.6-3.68.87-1.95,3.35-2.92,5.23-1.85,3.27,1.87,6.82,2.13,10.45,2.16,3.41.03,6.82-.06,10.21.56,4.74.87,7.22,4.01,8.28,8.34,1.08,4.42-.23,8.18-3.84,11.15-3.32,2.73-7.14,3.77-11.33,3.86-2.58.06-5.11-.34-7.64-.67-3.07-.4-5.18-2.89-5.35-6.06-.22-3.98-.03-7.94,1.19-11.79M535.99,78.94c-1.63,3.96-1.53,7.56-.31,11.18.53,1.59,1.52,2.7,3.1,3.47,3.46,1.68,7.05,1.46,10.56.69,2.72-.6,4.19-2.85,4.66-5.54.47-2.68-.01-5.31-2.39-6.86-4.72-3.07-10.01-3.62-15.63-2.93"/>
    <path class="cls-2" d="M385.5,77.03c2.68-2.35,4.82-4.25,8.11-2.44,1.82-1.04,3.78-1.6,5.91-1.64,3.31-.07,6.12.99,7.57,4.01,1.58,3.29,1.25,6.62-1.15,9.58-1.05,1.29-2.54,2.24-3.42,4.1,4.03,2.89,8.37,4.28,13.53,4.17-.87,1.78-1.98,2.49-3.37,2.88-2.53.71-5.07.72-7.56-.08-3.25-1.04-6.3-2.57-9.32-4.16-.59-.31-1.1-.75-1.25-1.47-.05-.91.52-1.35,1.27-1.67.78-.33,1.57-.66,2.34-1.03,3.91-1.89,5.17-4.35,4.08-7.89-1.25-4.07-4.12-5.81-8.51-5.12-1.23,1.37-1.13,3.1-1.13,4.8,0,6.25.04,12.5-.04,18.74-.04,3.05-1.11,4.17-3.7,4.31-.17,0-.34-.14-.58-.24-1.01-1.03-.81-2.41-.82-3.71-.03-5.02.01-10.04-.03-15.06-.02-2.8.57-5.73-1.93-8.1"/>
    <path class="cls-2" d="M594.49,94.83c-1.61,2.53-3.46,3.38-5.5,3.87-7.61,1.84-14.8-3.61-16.99-8.19-1.91-3.99-1-7.95,1.77-11.15,4.64-5.35,10.61-7.77,17.76-6.87,1.22.15,2.45.31,3.65.57,1.3.28,2.59.67,3.01,2.17-2.12,2.98-3.03,3.41-6.43,1.99-3.09-1.29-6.23-1.49-9.47-1.35-3.77.17-4.32.62-5.25,4.27-.14.54-.44,1.07,0,2.01,7.86.34,15.93.18,24,.65-1.14,2.25-2.91,2.85-4.97,2.86-5.4.02-10.81.03-16.21.05-1.02,0-2.09-.26-3.32.67.56,3.98,3.98,5.53,6.86,7.39,3.19,2.06,6.98.71,11.09,1.06"/>
    <path class="cls-2" d="M461.69,95.28c.07,2.03-1.19,2.42-2.39,2.68-2.73.59-5.14-.18-6.91-2.31-1.81-2.18-3.68-2.97-6.65-2.31-3.9.87-7.79,1.53-11.27,3.61-.79.47-1.61,1.03-2.62.85-1.02-1.14-.1-1.99.41-2.8,1.55-2.5,3.03-5.02,4.13-7.76,1.04-2.59,1.52-5.26,1.26-8.05-.14-1.53-.19-3.03.64-4.42,1.32-2.2,3.2-2.34,4.7-.25,1.05,1.46,1.94,3.03,2.9,4.55,2.75,4.32,5.72,8.46,9.37,12.1,1.85,1.85,4.12,2.94,6.43,4.1M438.49,91.94c3.21-.06,5.38-1.5,8.18-1.58-.71-2.48-1.88-4-3.75-5.33-1.98,1.94-2.69,4.43-4.43,6.91"/>
    <path class="cls-2" d="M74.65,69.57c.56.93.48,1.89.48,2.83,0,7.48.01,14.96,0,22.44,0,3.35-1.63,5.37-5.13,6.48-1.47-.6-1.3-1.93-1.31-3.13-.01-5.49-.02-10.98.03-16.47.02-2.06-.11-3.97-1.97-5.33-.76-.55-.98-1.37-.67-2.28.58-1.69,5.03-5.05,6.82-5.14.58-.03,1.13.08,1.74.62"/>
    <rect class="cls-3" x="11.03" y="108.89" width="599.31" height="10.52"/>
    <path class="cls-2" d="M25.71,138.6l-.8,3.34h-3.41l3.69-14.51h4.51l3.64,14.51h-3.45l-.77-3.34h-3.42ZM27.43,130.75l-1.21,5.72h2.43l-1.21-5.72Z"/>
    <polygon class="cls-2" points="62.26 127.42 62.26 129.62 56.23 139.75 62.26 139.75 62.26 141.93 52.69 141.93 52.69 139.74 58.74 129.61 52.69 129.62 52.69 127.42 62.26 127.42"/>
    <rect class="cls-2" x="82.07" y="127.42" width="3.28" height="14.51"/>
    <polygon class="cls-2" points="105.37 141.93 105.37 127.41 114.7 127.41 114.7 129.61 108.65 129.61 108.65 133.57 113.07 133.57 113.07 135.77 108.65 135.77 108.65 139.73 114.7 139.73 114.7 141.93 105.37 141.93"/>
    <polygon class="cls-2" points="137.73 127.41 142.07 137.17 142.07 127.41 145.35 127.41 145.35 141.93 141.83 141.93 137.32 132.63 137.32 141.93 134.05 141.93 134.05 127.41 137.73 127.41"/>
    <path class="cls-2" d="M175.67,138.46c0,.96-.5,1.78-1.51,2.46-1.01.68-2.22,1.02-3.64,1.02h-5.15v-14.52h5.15c1.43,0,2.65.34,3.65,1.02,1,.68,1.5,1.5,1.5,2.44v7.58ZM168.65,139.77h1.98c.52,0,.96-.13,1.32-.38.36-.25.54-.54.54-.88v-7.6c0-.35-.18-.65-.54-.89-.36-.25-.8-.37-1.31-.37h-1.98v10.12Z"/>
    <path class="cls-2" d="M199.22,138.6l-.8,3.34h-3.41l3.69-14.51h4.51l3.64,14.51h-3.45l-.77-3.34h-3.42ZM200.95,130.75l-1.21,5.72h2.43l-1.21-5.72Z"/>
    <path class="cls-2" d="M249.76,138.6l-.8,3.34h-3.41l3.69-14.51h4.51l3.64,14.51h-3.45l-.77-3.34h-3.42ZM251.48,130.75l-1.21,5.72h2.43l-1.21-5.72Z"/>
    <path class="cls-2" d="M281.94,142.12c-1.45,0-2.67-.34-3.68-1.02-1.01-.68-1.52-1.5-1.52-2.45v-7.92c0-.97.51-1.79,1.53-2.46,1.02-.68,2.24-1.02,3.68-1.02s2.67.34,3.68,1.02c1.01.68,1.51,1.5,1.51,2.45v1.66h-3.4v-1.7c0-.35-.18-.64-.56-.89-.37-.24-.81-.37-1.33-.37s-.96.13-1.33.37c-.36.25-.55.55-.55.89v7.94c0,.35.18.64.55.89.37.24.81.37,1.33.37s.97-.12,1.33-.37c.37-.24.56-.54.56-.88v-2.85h-1.82v-2.2h5.22v5.07c0,.97-.51,1.78-1.53,2.46-1.02.67-2.24,1.01-3.66,1.01"/>
    <path class="cls-2" d="M312.22,127.42c1.83,0,3.17.34,4.02,1.01.75.59,1.13,1.41,1.13,2.46v2.11c0,1.02-.59,1.89-1.75,2.61l2.42,6.33h-3.54l-1.99-5.47h-2.18v5.47h-3.28v-14.51h5.17ZM314.18,130.92c0-.84-.62-1.26-1.87-1.26h-1.98v4.64h1.98c.52,0,.96-.12,1.33-.37.36-.25.55-.54.55-.89v-2.12Z"/>
    <rect class="cls-2" x="337.95" y="127.42" width="3.28" height="14.51"/>
    <polygon class="cls-2" points="364.44 129.62 360.95 129.62 360.95 127.42 371.18 127.42 371.18 129.62 367.72 129.62 367.72 141.93 364.44 141.93 364.44 129.62"/>
    <path class="cls-2" d="M396.08,142.09c-1.45,0-2.67-.34-3.68-1.01-1.01-.67-1.51-1.49-1.51-2.44v-11.22h3.21v11.2c0,.35.18.64.55.89.37.24.82.37,1.34.37s.96-.12,1.33-.37c.36-.25.55-.54.55-.89v-11.2h3.41v11.22c0,.97-.51,1.79-1.53,2.46-1.02.67-2.24,1-3.67,1"/>
    <path class="cls-2" d="M426.45,127.42c1.83,0,3.17.34,4.02,1.01.75.59,1.13,1.41,1.13,2.46v2.11c0,1.02-.58,1.89-1.75,2.61l2.43,6.33h-3.55l-1.98-5.47h-2.18v5.47h-3.28v-14.51h5.17ZM428.41,130.92c0-.84-.62-1.26-1.87-1.26h-1.98v4.64h1.98c.52,0,.96-.12,1.33-.37.36-.25.55-.54.55-.89v-2.12Z"/>
    <rect class="cls-2" x="452.17" y="127.42" width="3.28" height="14.51"/>
    <path class="cls-2" d="M486.12,138.32c.02,1.01-.37,1.87-1.18,2.59-.53.49-1.28.83-2.25,1.03-.52.11-1.13.16-1.82.16-1.28,0-2.35-.21-3.19-.64-.7-.35-1.26-.82-1.67-1.42-.41-.6-.65-1.28-.72-2.05l3.12-.15c.14.85.47,1.46,1.01,1.84.39.29.85.42,1.35.41.72-.02,1.29-.25,1.72-.71.22-.23.33-.55.33-.96,0-.6-.41-1.2-1.23-1.8-.65-.41-1.62-1.02-2.92-1.84-1.09-.7-1.85-1.33-2.3-1.89-.49-.63-.73-1.31-.73-2.04,0-1.32.66-2.32,1.99-3,.82-.41,1.84-.62,3.05-.62s2.17.17,3,.52c.65.27,1.17.65,1.57,1.14.4.48.64,1.04.72,1.68l-3.14.38c-.09-.59-.35-1.05-.76-1.39-.3-.24-.74-.36-1.3-.36-.6,0-1.06.18-1.37.53-.26.29-.38.64-.38,1.06,0,.66.43,1.34,1.28,2.03.32.26.81.57,1.46.92.76.43,1.27.72,1.51.89.81.54,1.43,1.07,1.87,1.6.21.25.37.48.5.68.31.52.47.98.48,1.39"/>
    <polygon class="cls-2" points="508.95 129.62 505.46 129.62 505.46 127.42 515.69 127.42 515.69 129.62 512.23 129.62 512.23 141.93 508.95 141.93 508.95 129.62"/>
    <rect class="cls-2" x="535.42" y="127.42" width="3.28" height="14.51"/>
    <path class="cls-2" d="M563.89,142.12c-1.45,0-2.68-.34-3.69-1.01-1.01-.68-1.52-1.49-1.52-2.45v-7.92c0-.97.51-1.79,1.53-2.46,1.02-.68,2.24-1.02,3.68-1.02s2.67.34,3.67,1.02c1.01.68,1.51,1.5,1.51,2.45v1.66h-3.4v-1.7c0-.35-.19-.64-.56-.89-.37-.24-.82-.37-1.34-.37s-.96.13-1.33.37c-.36.25-.54.55-.54.89v7.94c0,.35.18.64.54.89.36.24.81.37,1.33.37s.97-.12,1.34-.37c.37-.25.56-.54.56-.89v-2h3.4v2.03c0,.97-.51,1.78-1.53,2.46-1.01.67-2.24,1.01-3.66,1.01"/>
    <path class="cls-2" d="M592.24,138.6l-.8,3.34h-3.41l3.69-14.51h4.51l3.64,14.51h-3.45l-.77-3.34h-3.42ZM593.96,130.75l-1.22,5.72h2.43l-1.21-5.72Z"/>
  </g>
</svg>